<svg className="h-24 w-20 text-emerald-900 opacity-60" stroke="none" viewBox="0 0 98 98" fill="currentColor" xmlns="http://www.w3.org/2000/svg">
                <path d="M19.6519 65.9551V65.9629L21.6519 65.9551C21.6519 65.4981 21.7964 65.0635 22.0708 64.6983L20.4712 63.4981C19.9351 64.2124 19.6519 65.062 19.6519 65.9551ZM22.6079 62.0181L23.1645 63.939C23.353 63.8843 23.5502 63.8565 23.7495 63.8565H24.8745V61.8565H23.7495C23.3618 61.8565 22.9771 61.9107 22.6079 62.0181Z" />
                <path d="M21.652 67.963H19.652V69.963H21.652V67.963Z" />
                <path d="M28.72 61.856H26.875V63.856H28.72V61.856Z" />
                <path d="M31.419 73.418H29.419V76.627H31.419V73.418Z" />
                <path d="M71.769 73.418H69.769V76.627H71.769V73.418Z" />
                <path d="M84.71 28.617H82.71V30.617H84.71V28.617Z" />
                <path d="M80.71 28.617H78.71V30.617H80.71V28.617Z" />
                <path d="M88.71 28.617H86.71V30.617H88.71V28.617Z" />
                <path d="M80.9396 24.3953L79.9398 22.6631L78.2077 23.6629L79.2074 25.3951L80.9396 24.3953Z" />
                <path d="M87.8666 20.3953L86.8668 18.6631L85.1346 19.6629L86.1344 21.3951L87.8666 20.3953Z" />
                <path d="M81.6754 21.6602L82.6752 23.3923L84.4073 22.3926L83.4076 20.6604L81.6754 21.6602Z" />
                <path d="M81.5577 35.1944L79.8255 34.1947L78.8258 35.9269L80.558 36.9266L81.5577 35.1944Z" />
                <path d="M88.4864 39.1941L86.7542 38.1943L85.7544 39.9265L87.4866 40.9263L88.4864 39.1941Z" />
                <path d="M85.0222 37.1946L83.29 36.1948L82.2903 37.927L84.0225 38.9268L85.0222 37.1946Z" />
                <path d="M22.479 28.617H20.479V30.617H22.479V28.617Z" />
                <path d="M14.479 28.617H12.479V30.617H14.479V28.617Z" />
                <path d="M18.479 28.617H16.479V30.617H18.479V28.617Z" />
                <path d="M14.3183 18.6624L13.3181 20.3943L15.0499 21.3946L16.0502 19.6627L14.3183 18.6624Z" />
                <path d="M21.2463 22.6602L20.2465 24.3923L21.9787 25.3921L22.9785 23.6599L21.2463 22.6602Z" />
                <path d="M17.7823 20.6602L16.7825 22.3923L18.5147 23.3921L19.5145 21.6599L17.7823 20.6602Z" />
                <path d="M15.4356 39.9276L14.4358 38.1954L12.7037 39.1952L13.7034 40.9273L15.4356 39.9276Z" />
                <path d="M17.9003 36.1965L16.1679 37.1959L17.1673 38.9283L18.8997 37.9289L17.9003 36.1965Z" />
                <path d="M20.6361 36.9313L22.3679 35.931L21.3677 34.1991L19.6358 35.1994L20.6361 36.9313Z" />
                <path d="M47.0864 56.9497C47.3393 56.2915 47.56 55.6221 47.7436 54.96L45.8159 54.4258C45.6499 55.0264 45.4487 55.6343 45.2192 56.2329L47.0864 56.9497Z" />
                <path d="M85.6138 65.9575C85.6138 61.4516 81.9478 57.7861 77.4419 57.7861H61.2544C59.5909 55.0011 58.7736 52.1979 58.8012 49.4381C59.9501 48.456 61.0118 47.2991 61.9737 46.0276C64.7838 45.7451 67.1116 44.8575 68.9136 43.3471C71.8528 40.8839 72.5017 37.5423 72.6458 36.1356C75.0759 34.9621 76.7651 32.4767 76.7651 29.6172C76.7651 26.999 75.348 24.6951 73.2443 23.423C72.13 19.6251 70.0669 16.1329 67.2416 13.3072C66.3739 12.4398 65.4317 11.6647 64.4567 10.9539C64.8074 9.3904 64.0956 7.8073 62.7455 7.0299C59.0111 4.8815 54.7357 3.7457 50.3812 3.7457C46.0267 3.7457 41.7523 4.8814 38.0189 7.0299C36.6783 7.8026 35.9609 9.3722 36.3059 10.9401C31.9341 14.1493 28.7823 18.7236 27.3738 23.9479C25.6955 25.2782 24.6107 27.3275 24.6107 29.6173C24.6107 33.5651 27.8226 36.8131 31.7718 36.857L32.7825 36.8682V22.3662L31.7718 22.3774C31.1134 22.3847 30.4784 22.4884 29.8724 22.6623C31.3181 18.7087 33.8908 15.2573 37.2815 12.7065C38.4042 13.8128 40.2466 14.1087 41.6223 13.3174C44.2659 11.7959 47.2942 10.9917 50.3811 10.9917C53.469 10.9917 56.4973 11.7959 59.1409 13.3179C60.536 14.1201 62.2758 13.8994 63.4666 12.709C64.2898 13.3233 65.0887 13.9838 65.8274 14.7217C68.0433 16.938 69.7436 19.6026 70.8305 22.504C70.4311 22.4302 70.0228 22.3821 69.6038 22.3775L68.5931 22.3663V36.8683L69.6038 36.8571C69.9171 36.8536 70.2235 36.823 70.5263 36.7805C70.2574 38.1161 69.5414 40.2116 67.6292 41.8141C66.5202 42.7431 65.1377 43.377 63.5207 43.7487C66.1368 39.4455 67.6868 34.3628 67.6868 30.2936C67.6868 28.6518 67.4503 27.029 66.9878 25.4686C66.9872 25.466 66.9865 25.4636 66.9858 25.4611C66.981 25.4448 66.9778 25.4281 66.9729 25.4118C64.8137 18.2097 58.3059 13.3425 50.7747 13.3H50.5852C43.0657 13.3425 36.5627 18.2097 34.4036 25.4113C34.3986 25.428 34.3954 25.4451 34.3905 25.4617C34.39 25.4639 34.3893 25.4659 34.3889 25.468C33.9264 27.0289 33.6898 28.6517 33.6898 30.2936C33.6898 36.3477 37.1128 44.6479 42.3843 49.2796C42.454 52.0806 41.6389 54.9374 39.9359 57.7863H23.7466C19.2407 57.7863 15.5757 61.4518 15.5757 65.9577V96.999H85.6138V65.9575ZM30.7827 34.7466C28.4067 34.2486 26.6108 32.1289 26.6108 29.6172C26.6108 27.1055 28.4067 24.9859 30.7827 24.4878V34.7466ZM60.1392 11.5845C57.1929 9.8882 53.8189 8.9917 50.3814 8.9917C46.9449 8.9917 43.5709 9.8882 40.6246 11.5845C39.9498 11.9732 39.0182 11.7696 38.5465 11.1407C37.9797 10.3859 38.16 9.2558 39.0172 8.7633C42.4469 6.7892 46.3766 5.7457 50.3814 5.7457C54.3863 5.7457 58.317 6.7892 61.7476 8.7633C63.5361 9.7908 62.0236 12.6699 60.1392 11.5845ZM70.5933 24.4878C72.9693 24.9858 74.7652 27.1055 74.7652 29.6172C74.7652 32.1289 72.9693 34.2485 70.5933 34.7466V24.4878ZM50.5913 15.2998H50.769C57.1669 15.336 62.7187 19.3281 64.8214 25.3014C63.3866 26.1957 61.75 26.6651 60.0453 26.6651C56.3256 26.6651 52.9379 24.3365 51.6176 20.8711C51.4701 20.4834 51.0981 20.2271 50.683 20.2271C50.2679 20.2271 49.8959 20.4834 49.7484 20.8711C48.4281 24.3364 45.0453 26.6651 41.3314 26.6651C39.627 26.6651 37.9907 26.1959 36.5561 25.3019C38.643 19.4159 44.3084 15.3351 50.5913 15.2998ZM35.6899 30.2935C35.6899 29.2773 35.7985 28.2712 36 27.2853C37.6288 28.1869 39.4448 28.6651 41.3315 28.6651C45.1596 28.6651 48.7006 26.6397 50.6831 23.4629C52.6675 26.6397 56.2114 28.6651 60.0454 28.6651C61.9322 28.6651 63.7481 28.1868 65.3769 27.2852C65.5784 28.271 65.687 29.2773 65.687 30.2935C65.687 34.5195 63.8482 39.9187 60.9124 44.1126C59.5036 44.1816 57.9404 44.0743 56.2554 43.8243C56.1974 41.5014 54.299 39.627 51.9624 39.627C49.5894 39.627 47.6587 41.5577 47.6587 43.9307C47.6587 46.3042 49.5894 48.2349 51.9624 48.2349C53.6661 48.2349 55.1285 47.2317 55.8255 45.792C57.0565 45.9805 58.2263 46.0893 59.3352 46.1196C56.8892 48.8874 53.9056 50.7671 50.6831 50.7671C42.4067 50.7671 35.6899 38.3784 35.6899 30.2935ZM54.2661 43.9307C54.2661 45.2012 53.2329 46.2349 51.9624 46.2349C50.6919 46.2349 49.6587 45.2012 49.6587 43.9307C49.6587 42.6602 50.6919 41.627 51.9624 41.627C53.2329 41.627 54.2661 42.6602 54.2661 43.9307ZM44.3416 50.7606C44.9814 51.174 45.6399 51.5383 46.3195 51.8327C46.2879 52.0795 46.2749 52.3288 46.233 52.5728L48.2037 52.9107C48.2284 52.7668 48.245 52.6205 48.2665 52.4756C49.0532 52.6614 49.8587 52.7672 50.6832 52.7672C52.885 52.7672 54.9612 52.0598 56.8585 50.8708C57.0824 53.5468 57.9959 56.2304 59.5894 58.8782L50.5943 76.8697L41.5993 58.8802C43.2217 56.1871 44.1391 53.4662 44.3416 50.7606ZM83.6138 94.999H71.769V79.1748H69.769V94.999H51.688V94.2798H49.688V94.999H31.4185V79.1748H29.4185V94.999H17.5757V65.9575C17.5757 62.5547 20.3443 59.7861 23.7466 59.7861H39.8159L50.5942 81.3413L61.3715 59.7861H77.4418C80.8451 59.7861 83.6137 62.5547 83.6137 65.9575V94.999H83.6138Z" />
                <path d="M51.688 86.28H49.688V88.28H51.688V86.28Z" />
                <path d="M51.688 90.28H49.688V92.28H51.688V90.28Z" />
                <path d="M51.688 82.28H49.688V84.28H51.688V82.28Z" />
                <path d="M90.418 69.963H88.418V71.963H90.418V69.963Z" />
                <path d="M90.418 81.963H88.418V83.963H90.418V81.963Z" />
                <path d="M90.418 73.963H88.418V75.963H90.418V73.963Z" />
                <path d="M90.418 77.963H88.418V79.963H90.418V77.963Z" />
                <path d="M12.771 77.963H10.771V79.963H12.771V77.963Z" />
                <path d="M12.771 81.963H10.771V83.963H12.771V81.963Z" />
                <path d="M12.771 73.963H10.771V75.963H12.771V73.963Z" />
                <path d="M12.771 69.963H10.771V71.963H12.771V69.963Z" />
                <path d="M13.779 1.001H11.779V3.001H13.779V1.001Z" />
                <path d="M9.779 1.001H7.779V3.001H9.779V1.001Z" />
                <path d="M5.779 1.001H3.779V3.001H5.779V1.001Z" />
                <path d="M18.008 52.84H16.008V54.84H18.008V52.84Z" />
                <path d="M10.008 52.84H8.008V54.84H10.008V52.84Z" />
                <path d="M14.008 52.84H12.008V54.84H14.008V52.84Z" />
                <path d="M87.526 49.757H85.526V51.757H87.526V49.757Z" />
                <path d="M91.526 49.757H89.526V51.757H91.526V49.757Z" />
                <path d="M83.526 49.757H81.526V51.757H83.526V49.757Z" />
                <path d="M86.221 1.001H84.221V3.001H86.221V1.001Z" />
                <path d="M94.221 1.001H92.221V3.001H94.221V1.001Z" />
                <path d="M90.221 1.001H88.221V3.001H90.221V1.001Z" />
                <path d="M23.821 7.92H21.652V5.751H19.652V7.92H17.483V9.92H19.652V12.088H21.652V9.92H23.821V7.92Z" />
                <path d="M79.177 6.455V8.624H77.008V10.624H79.177V12.793H81.177V10.624H83.346V8.624H81.177V6.455H79.177Z" />
              </svg>