     <svg className="h-24 w-20 text-emerald-900 opacity-60" stroke="none" viewBox="0 0 98 98" fill="currentColor" xmlns="http://www.w3.org/2000/svg">
                <path d="M7.90261 23.9001L9.43735 37.5783L11.4259 37.3551L9.89113 23.677L7.90261 23.9001Z" />
                <path d="M20.7911 37.3612L22.7797 37.5836L24.3098 23.9059L22.3212 23.6835L20.7911 37.3612Z" />
                <path d="M3.5137 40.7197V47.6186H10.2432V96.4726C27.5101 96.4726 75.3958 96.4726 91.7823 96.4726V57.2846H97.1114V50.1044H21.9697V47.6186H28.6992V40.7197H26.7171L31.3232 17.9551H25.1396V13.0567H17.1064V9.0831C18.7438 8.6395 19.958 7.1552 19.958 5.3794C19.958 3.2554 18.2305 1.5273 16.1064 1.5273C13.9823 1.5273 12.2539 3.2553 12.2539 5.3794C12.2539 7.1554 13.4687 8.6395 15.1064 9.0831V13.0566H7.0723V17.955H0.888702L5.4957 40.7196H3.5137V40.7197ZM14.2539 5.3794C14.2539 4.3584 15.085 3.5273 16.1064 3.5273C17.1269 3.5273 17.958 4.3584 17.958 5.3794C17.958 6.4004 17.1269 7.2315 16.1064 7.2315C15.085 7.2315 14.2539 6.4004 14.2539 5.3794ZM89.7822 94.4727H21.9697V57.2847H89.7822V94.4727ZM95.1113 52.1045V55.2847C75.8333 55.2847 57.2527 55.2847 21.9697 55.2847V52.1045H95.1113ZM19.9697 94.4727H12.2431V47.6187H19.9697C19.9697 75.1318 19.9697 69.5096 19.9697 94.4727ZM26.6992 42.7197V45.6186C18.7218 45.6186 9.9581 45.6186 5.5137 45.6186V42.7197C18.3643 42.7197 19.1657 42.7197 26.6992 42.7197ZM9.0723 15.0567H23.1397V17.9551H9.0723V15.0567ZM3.334 19.9551C11.2785 19.9551 20.9648 19.9551 28.8779 19.9551L24.6758 40.7197H7.5371L3.334 19.9551Z" />
                <path d="M17.106 23.574H15.106V37.101H17.106V23.574Z" />
                <path d="M34.4639 59.3521H25.0967V68.7193H34.4639V59.3521ZM32.4639 66.7193H27.0967V61.3521H32.4639V66.7193ZM47.5117 59.3521H38.1445V68.7193H47.5117V59.3521V59.3521ZM45.5117 66.7193H40.1445V61.3521H45.5117V66.7193V66.7193ZM60.5596 59.3521H51.1924V68.7193H60.5596V59.3521ZM58.5596 66.7193H53.1924V61.3521H58.5596V66.7193ZM73.6074 59.3521H64.2402V68.7193H73.6074V59.3521ZM71.6074 66.7193H66.2402V61.3521H71.6074V66.7193ZM86.6553 59.3521H77.2881V68.7193H86.6553V59.3521ZM84.6553 66.7193H79.2881V61.3521H84.6553V66.7193ZM34.4639 71.1948H25.0967V80.5625H34.4639V71.1948ZM32.4639 78.5625H27.0967V73.1948H32.4639V78.5625ZM47.5117 71.1948H38.1445V80.5625H47.5117V71.1948V71.1948ZM45.5117 78.5625H40.1445V73.1948H45.5117V78.5625V78.5625ZM60.5596 71.1948H51.1924V80.5625H60.5596V71.1948ZM58.5596 78.5625H53.1924V73.1948H58.5596V78.5625ZM73.6074 71.1948H64.2402V80.5625H73.6074V71.1948ZM71.6074 78.5625H66.2402V73.1948H71.6074V78.5625ZM86.6553 71.1948H77.2881V80.5625H86.6553V71.1948ZM84.6553 78.5625H79.2881V73.1948H84.6553V78.5625ZM34.4639 83.0381H25.0967V92.4053H34.4639V83.0381ZM32.4639 90.4053H27.0967V85.0381H32.4639V90.4053ZM47.5117 83.0381H38.1445V92.4053H47.5117V83.0381V83.0381ZM45.5117 90.4053H40.1445V85.0381H45.5117V90.4053V90.4053ZM60.5596 83.0381H51.1924V92.4053H60.5596V83.0381ZM58.5596 90.4053H53.1924V85.0381H58.5596V90.4053ZM73.6074 83.0381H64.2402V92.4053H73.6074V83.0381ZM71.6074 90.4053H66.2402V85.0381H71.6074V90.4053ZM86.6553 83.0381H77.2881V92.4053H86.6553V83.0381ZM84.6553 90.4053H79.2881V85.0381H84.6553V90.4053ZM88.2266 24.02C90.4215 22.7091 91.1539 19.8658 89.833 17.6543C88.5248 15.4612 85.6749 14.7307 83.4678 16.0469L80.8389 17.6157C78.9887 17.4355 74.8941 15.3732 70.3731 18.0693L63.1866 22.3586L47.6406 17.3159L41.6552 20.8891L53.6218 28.0673L44.3565 33.5973L36.1816 29.0433L32.3896 31.306L37.4531 38.9113L40.8545 44.6102L60.6035 40.5067L79.6863 29.1171L82.5079 30.7874C82.2689 31.9985 82.7237 33.2953 83.7881 34.0639C85.2653 35.128 87.2959 34.7667 88.335 33.3276C89.3848 31.8715 89.0547 29.8325 87.5987 28.7822C86.3537 27.8844 84.6566 27.9656 83.4893 29.0442L81.6415 27.9504L88.2266 24.02ZM47.8867 19.4985L60.9043 23.7207L55.5703 26.9038L45.5498 20.8931L47.8867 19.4985ZM84.6738 30.6885C85.072 30.1381 85.8524 29.9897 86.4287 30.4043C86.9902 30.8096 87.1172 31.5962 86.7129 32.1572C86.2981 32.7328 85.5121 32.8397 84.958 32.4424C84.3965 32.0366 84.2695 31.2495 84.6738 30.6885ZM36.2168 31.3521L42.373 34.7813L41.8475 35.095L38.6035 37.0308L35.2197 31.9468L36.2168 31.3521ZM59.8672 38.6172L41.8428 42.3623L39.67 38.7239C83.4921 12.5692 66.2734 22.8459 71.3984 19.7871C74.6988 17.8187 77.7472 19.0824 78.319 19.1197L74.292 21.5234L75.3174 23.2412L81.3941 19.6141L84.4932 17.7646C85.7229 17.0297 87.3514 17.3969 88.1162 18.6792C88.8637 19.9328 88.4561 21.5545 87.2012 22.3022L59.8672 38.6172Z" />
                <path d="M51.7912 33.6471L53.3549 36.267L55.0722 35.242L53.5086 32.6221L51.7912 33.6471Z" />
                <path d="M55.1851 31.6486L56.7487 34.2685L58.4661 33.2435L56.9025 30.6236L55.1851 31.6486Z" />
                <path d="M58.5792 29.6521L60.1429 32.272L61.8602 31.247L60.2966 28.6271L58.5792 29.6521Z" />
                <path d="M61.9741 27.6536L63.5377 30.2735L65.2551 29.2485L63.6915 26.6286L61.9741 27.6536Z" />
                <path d="M65.3672 25.6571L66.9308 28.277L68.6482 27.252L67.0846 24.6321L65.3672 25.6571Z" />
                <path d="M68.7627 23.66L70.3264 26.2799L72.0437 25.2549L70.4801 22.635L68.7627 23.66Z" />
                <path d="M8.07599 63.21H6.07599V65.21H8.07599V63.21Z" />
                <path d="M8.07599 67.21H6.07599V69.21H8.07599V67.21Z" />
                <path d="M8.07599 75.21H6.07599V76.743H8.07599V75.21Z" />
                <path d="M8.07599 71.21H6.07599V73.21H8.07599V71.21Z" />
                <path d="M8.07599 59.21H6.07599V61.21H8.07599V59.21Z" />
                <path d="M40.101 5.729H38.101V7.729H40.101V5.729Z" />
                <path d="M36.101 5.729H34.101V7.729H36.101V5.729Z" />
                <path d="M32.101 5.729H30.101V7.729H32.101V5.729Z" />
                <path d="M63.717 10.639H61.717V12.639H63.717V10.639Z" />
                <path d="M59.717 10.639H57.717V12.639H59.717V10.639Z" />
                <path d="M67.717 10.639H65.717V12.639H67.717V10.639Z" />
                <path d="M79.731 4.379H77.731V6.379H79.731V4.379Z" />
                <path d="M87.731 4.379H85.731V6.379H87.731V4.379Z" />
                <path d="M83.731 4.379H81.731V6.379H83.731V4.379Z" />
                <path d="M81.185 45.676H79.185V47.676H81.185V45.676Z" />
                <path d="M85.185 45.676H83.185V47.676H85.185V45.676Z" />
                <path d="M73.185 45.676H71.185V47.676H73.185V45.676Z" />
                <path d="M77.185 45.676H75.185V47.676H77.185V45.676Z" />
              </svg>