    <svg stroke="none" viewBox="0 0 168 168" fill="currentColor" xmlns="http://www.w3.org/2000/svg">
                <path d="M2 145.617C3.10457 145.617 4 144.722 4 143.617C4 142.512 3.10457 141.617 2 141.617C0.89543 141.617 0 142.512 0 143.617C0 144.722 0.89543 145.617 2 145.617Z" />
                <path d="M11 141.617H8C7.46957 141.617 6.96086 141.827 6.58579 142.202C6.21071 142.578 6 143.086 6 143.617C6 144.147 6.21071 144.656 6.58579 145.031C6.96086 145.406 7.46957 145.617 8 145.617H11C11.5304 145.617 12.0391 145.406 12.4142 145.031C12.7893 144.656 13 144.147 13 143.617C13 143.086 12.7893 142.578 12.4142 142.202C12.0391 141.827 11.5304 141.617 11 141.617ZM160 141.617H157C156.47 141.617 155.961 141.827 155.586 142.202C155.211 142.578 155 143.086 155 143.617C155 144.147 155.211 144.656 155.586 145.031C155.961 145.406 156.47 145.617 157 145.617H160C160.53 145.617 161.039 145.406 161.414 145.031C161.789 144.656 162 144.147 162 143.617C162 143.086 161.789 142.578 161.414 142.202C161.039 141.827 160.53 141.617 160 141.617Z" />
                <path d="M166 145.617C167.105 145.617 168 144.722 168 143.617C168 142.512 167.105 141.617 166 141.617C164.895 141.617 164 142.512 164 143.617C164 144.722 164.895 145.617 166 145.617Z" />
                <path d="M118.154 149.617H109.846C109.343 149.657 108.874 149.885 108.532 150.256C108.19 150.626 108 151.112 108 151.617C108 152.121 108.19 152.607 108.532 152.978C108.874 153.348 109.343 153.576 109.846 153.617H118.154C118.657 153.576 119.126 153.348 119.468 152.978C119.81 152.607 120 152.121 120 151.617C120 151.112 119.81 150.626 119.468 150.256C119.126 149.885 118.657 149.657 118.154 149.617V149.617ZM58.1539 149.617H49.8461C49.3433 149.657 48.8742 149.885 48.5321 150.256C48.1899 150.626 48 151.112 48 151.617C48 152.121 48.1899 152.607 48.5321 152.978C48.8742 153.348 49.3433 153.576 49.8461 153.617H58.1539C58.6566 153.576 59.1258 153.348 59.4679 152.978C59.81 152.607 60 152.121 60 151.617C60 151.112 59.81 150.626 59.4679 150.256C59.1258 149.885 58.6566 149.657 58.1539 149.617V149.617ZM104 149.617H64C63.4696 149.617 62.9609 149.827 62.5858 150.202C62.2107 150.578 62 151.086 62 151.617C62 152.147 62.2107 152.656 62.5858 153.031C62.9609 153.406 63.4696 153.617 64 153.617H79.94V155.617H72C71.4696 155.617 70.9609 155.827 70.5858 156.202C70.2107 156.578 70 157.086 70 157.617C70 158.147 70.2107 158.656 70.5858 159.031C70.9609 159.406 71.4696 159.617 72 159.617H97C97.5304 159.617 98.0391 159.406 98.4142 159.031C98.7893 158.656 99 158.147 99 157.617C99 157.086 98.7893 156.578 98.4142 156.202C98.0391 155.827 97.5304 155.617 97 155.617H88.06V153.617H104C104.53 153.617 105.039 153.406 105.414 153.031C105.789 152.656 106 152.147 106 151.617C106 151.086 105.789 150.578 105.414 150.202C105.039 149.827 104.53 149.617 104 149.617Z" />
                <path d="M147.92 109.717C147.84 109.427 140.34 82.4966 136.62 68.8466L135.12 64.8066L130.43 52.2366C129.749 50.3126 128.492 48.6449 126.83 47.4605C125.168 46.276 123.181 45.6322 121.14 45.6166H30.96C27.9902 45.6875 25.1695 46.9322 23.1153 49.0782C21.0612 51.2242 19.941 54.0966 20 57.0667V131.477C19.9948 132.543 20.4132 133.567 21.1634 134.325C21.9135 135.083 22.9338 135.511 24 135.517H31C31.5325 135.512 32.0417 135.297 32.4164 134.919C32.7911 134.541 33.0009 134.029 33 133.497C32.979 131.382 33.3773 129.284 34.172 127.325C34.9666 125.365 36.1418 123.582 37.6296 122.08C39.1175 120.577 40.8884 119.384 42.84 118.57C44.7917 117.756 46.8854 117.337 49 117.337C51.1146 117.337 53.2083 117.756 55.1599 118.57C57.1116 119.384 58.8825 120.577 60.3703 122.08C61.8582 123.582 63.0334 125.365 63.828 127.325C64.6227 129.284 65.021 131.382 65 133.497C64.9991 134.029 65.2089 134.541 65.5836 134.919C65.9583 135.297 66.4674 135.512 67 135.517H100C100.533 135.512 101.042 135.297 101.416 134.919C101.791 134.541 102.001 134.029 102 133.497C101.979 131.382 102.377 129.284 103.172 127.325C103.967 125.365 105.142 123.582 106.63 122.08C108.117 120.577 109.888 119.384 111.84 118.57C113.792 117.756 115.885 117.337 118 117.337C120.115 117.337 122.208 117.756 124.16 118.57C126.112 119.384 127.883 120.577 129.37 122.08C130.858 123.582 132.033 125.365 132.828 127.325C133.623 129.284 134.021 131.382 134 133.497C133.999 134.029 134.209 134.541 134.584 134.919C134.958 135.297 135.467 135.512 136 135.517H142C143.599 135.507 145.128 134.863 146.253 133.727C147.378 132.591 148.006 131.055 148 129.457V110.267C147.999 110.081 147.972 109.895 147.92 109.717V109.717ZM143.64 109.257H130.96C125.533 102.667 118.218 97.8966 110 95.5866V68.8466H132.47C135.59 80.3266 141.93 103.117 143.64 109.257V109.257ZM24 57.0667C23.9433 55.1619 24.6441 53.3123 25.9487 51.9234C27.2533 50.5344 29.0554 49.7193 30.96 49.6567H121.14C122.364 49.6731 123.553 50.0671 124.545 50.7849C125.536 51.5026 126.282 52.5091 126.68 53.6667L130.84 64.8067H24V57.0667ZM24 68.8467H106V95.1067H24V68.8467ZM144 129.457C144.001 129.989 143.791 130.501 143.416 130.879C143.042 131.257 142.533 131.472 142 131.477H137.9C137.45 126.509 135.159 121.89 131.477 118.526C127.795 115.162 122.987 113.297 118 113.297C113.012 113.297 108.205 115.162 104.523 118.526C100.841 121.89 98.5497 126.509 98.1 131.477H68.9C68.4503 126.509 66.1592 121.89 62.4769 118.526C58.7947 115.162 53.9875 113.297 49 113.297C44.0125 113.297 39.2053 115.162 35.523 118.526C31.8408 121.89 29.5497 126.509 29.1 131.477H24V99.1567H107.74L108.41 99.3367C116.337 101.435 123.362 106.063 128.42 112.517C128.606 112.759 128.846 112.955 129.119 113.09C129.393 113.225 129.695 113.296 130 113.297H144V129.457Z" />
                <path d="M148 73.7567V78.9466C148.003 79.2109 147.953 79.4732 147.854 79.7181C147.754 79.9631 147.607 80.186 147.421 80.3738C147.235 80.5617 147.014 80.7108 146.77 80.8125C146.526 80.9143 146.264 80.9667 146 80.9667C145.736 80.9667 145.474 80.9143 145.23 80.8125C144.986 80.7108 144.765 80.5617 144.579 80.3738C144.393 80.186 144.246 79.9631 144.146 79.7181C144.047 79.4732 143.997 79.2109 144 78.9466V73.7567C143.935 72.3949 143.334 71.1141 142.328 70.1941C141.322 69.2741 139.992 68.7897 138.63 68.8467H136.62L135.12 64.8067H138.63C141.058 64.7553 143.408 65.6684 145.164 67.346C146.92 69.0235 147.94 71.3287 148 73.7567V73.7567Z" />
                <path d="M150.721 141.617H126.883C128.445 139.896 129.475 137.759 129.846 135.464C130.217 133.17 129.914 130.817 128.973 128.691C128.033 126.566 126.495 124.759 124.547 123.491C122.599 122.223 120.324 121.548 118 121.548C115.676 121.548 113.401 122.223 111.453 123.491C109.505 124.759 107.967 126.566 107.027 128.691C106.086 130.817 105.783 133.17 106.154 135.464C106.525 137.759 107.555 139.896 109.117 141.617H57.8826C59.4454 139.896 60.475 137.759 60.8461 135.464C61.2173 133.17 60.9141 130.817 59.9733 128.691C59.0326 126.566 57.4948 124.759 55.5467 123.491C53.5987 122.223 51.3244 121.548 49 121.548C46.6756 121.548 44.4013 122.223 42.4532 123.491C40.5052 124.759 38.9674 126.566 38.0267 128.691C37.0859 130.817 36.7827 133.17 37.1538 135.464C37.525 137.759 38.5546 139.896 40.1174 141.617H17.2787C16.9942 141.579 16.705 141.603 16.4305 141.687C16.1559 141.77 15.9024 141.912 15.6867 142.101C15.4711 142.29 15.2983 142.523 15.18 142.785C15.0616 143.046 15.0004 143.33 15.0004 143.617C15.0004 143.904 15.0616 144.187 15.18 144.449C15.2983 144.71 15.4711 144.943 15.6867 145.132C15.9024 145.322 16.1559 145.463 16.4305 145.546C16.705 145.63 16.9942 145.654 17.2787 145.617H150.721C151.006 145.654 151.295 145.63 151.57 145.546C151.844 145.463 152.098 145.322 152.313 145.132C152.529 144.943 152.702 144.71 152.82 144.449C152.938 144.187 153 143.904 153 143.617C153 143.33 152.938 143.046 152.82 142.785C152.702 142.523 152.529 142.29 152.313 142.101C152.098 141.912 151.844 141.77 151.57 141.687C151.295 141.603 151.006 141.579 150.721 141.617ZM118 125.415C119.602 125.399 121.172 125.859 122.512 126.737C123.851 127.615 124.9 128.872 125.524 130.347C126.148 131.822 126.32 133.449 126.017 135.022C125.714 136.595 124.951 138.043 123.824 139.181C122.697 140.319 121.257 141.097 119.688 141.415C118.118 141.734 116.489 141.579 115.007 140.969C113.526 140.36 112.259 139.324 111.368 137.994C110.476 136.663 110 135.097 110 133.495C109.992 131.364 110.829 129.316 112.329 127.801C113.829 126.286 115.868 125.428 118 125.415V125.415ZM49 125.415C50.6017 125.399 52.172 125.859 53.5116 126.737C54.8512 127.615 55.8997 128.872 56.5238 130.347C57.1479 131.822 57.3195 133.449 57.0169 135.022C56.7143 136.595 55.9511 138.043 54.8242 139.181C53.6972 140.319 52.2575 141.097 50.6876 141.415C49.1178 141.734 47.4888 141.579 46.0074 140.969C44.5261 140.36 43.2591 139.324 42.3676 137.994C41.476 136.663 41 135.097 41 133.495C40.9918 131.364 41.8294 129.316 43.3292 127.801C44.8289 126.286 46.8683 125.428 49 125.415V125.415Z" />
                <path d="M48 49.657H44V64.807H48V49.657Z" />
                <path d="M83 49.657H79V64.807H83V49.657Z" />
                <path d="M110 49.657H106V64.807H110V49.657Z" />
                <path d="M20 41.6167C20.5933 41.6167 21.1734 41.4407 21.6667 41.1111C22.1601 40.7814 22.5446 40.3129 22.7716 39.7647C22.9987 39.2165 23.0581 38.6133 22.9424 38.0314C22.8266 37.4494 22.5409 36.9149 22.1213 36.4953C21.7018 36.0758 21.1672 35.7901 20.5853 35.6743C20.0033 35.5585 19.4001 35.618 18.8519 35.845C18.3038 36.0721 17.8352 36.4566 17.5056 36.95C17.1759 37.4433 17 38.0233 17 38.6167C17.0009 39.412 17.3173 40.1746 17.8797 40.737C18.4421 41.2994 19.2046 41.6158 20 41.6167ZM20 37.1167C20.2967 37.1167 20.5867 37.2046 20.8334 37.3695C21.08 37.5343 21.2723 37.7685 21.3858 38.0426C21.4993 38.3167 21.5291 38.6183 21.4712 38.9093C21.4133 39.2003 21.2704 39.4675 21.0607 39.6773C20.8509 39.8871 20.5836 40.03 20.2926 40.0878C20.0017 40.1457 19.7001 40.116 19.426 40.0025C19.1519 39.8889 18.9176 39.6967 18.7528 39.45C18.588 39.2033 18.5 38.9133 18.5 38.6167C18.5004 38.219 18.6586 37.8377 18.9398 37.5564C19.221 37.2752 19.6023 37.1171 20 37.1167V37.1167ZM83 36.6167C82.6044 36.6167 82.2178 36.734 81.8889 36.9537C81.56 37.1735 81.3036 37.4858 81.1522 37.8513C81.0009 38.2167 80.9613 38.6189 81.0384 39.0068C81.1156 39.3948 81.3061 39.7512 81.5858 40.0309C81.8655 40.3106 82.2219 40.5011 82.6098 40.5782C82.9978 40.6554 83.3999 40.6158 83.7654 40.4644C84.1308 40.313 84.4432 40.0567 84.6629 39.7278C84.8827 39.3989 85 39.0122 85 38.6167C84.9994 38.0864 84.7885 37.5781 84.4135 37.2031C84.0386 36.8282 83.5302 36.6173 83 36.6167V36.6167ZM83 39.6167C82.8022 39.6167 82.6089 39.558 82.4444 39.4481C82.28 39.3382 82.1518 39.1821 82.0761 38.9993C82.0004 38.8166 81.9806 38.6156 82.0192 38.4216C82.0578 38.2276 82.153 38.0494 82.2929 37.9096C82.4327 37.7697 82.6109 37.6745 82.8049 37.6359C82.9989 37.5973 83.2 37.6171 83.3827 37.6928C83.5654 37.7685 83.7216 37.8966 83.8315 38.0611C83.9413 38.2255 84 38.4189 84 38.6167C83.9997 38.8818 83.8943 39.136 83.7068 39.3235C83.5193 39.511 83.2651 39.6164 83 39.6167V39.6167ZM128.82 35.1069C128.424 35.1069 128.038 35.2242 127.709 35.444C127.38 35.6637 127.124 35.9761 126.972 36.3415C126.821 36.707 126.781 37.1091 126.858 37.4971C126.936 37.885 127.126 38.2414 127.406 38.5211C127.685 38.8008 128.042 38.9913 128.43 39.0685C128.818 39.1456 129.22 39.106 129.585 38.9547C129.951 38.8033 130.263 38.5469 130.483 38.218C130.703 37.8891 130.82 37.5025 130.82 37.1069C130.819 36.5766 130.608 36.0683 130.234 35.6933C129.859 35.3184 129.35 35.1075 128.82 35.1069ZM128.82 38.1069C128.622 38.1069 128.429 38.0482 128.264 37.9384C128.1 37.8285 127.972 37.6723 127.896 37.4896C127.82 37.3068 127.801 37.1058 127.839 36.9118C127.878 36.7178 127.973 36.5396 128.113 36.3998C128.253 36.2599 128.431 36.1647 128.625 36.1261C128.819 36.0875 129.02 36.1073 129.203 36.183C129.385 36.2587 129.542 36.3869 129.651 36.5513C129.761 36.7158 129.82 36.9091 129.82 37.1069C129.82 37.372 129.714 37.6262 129.527 37.8137C129.339 38.0012 129.085 38.1066 128.82 38.1069ZM155.776 20.959C155.38 20.959 154.994 21.0763 154.665 21.2961C154.336 21.5158 154.079 21.8282 153.928 22.1936C153.777 22.5591 153.737 22.9612 153.814 23.3492C153.891 23.7371 154.082 24.0935 154.362 24.3732C154.641 24.6529 154.998 24.8434 155.386 24.9206C155.774 24.9977 156.176 24.9581 156.541 24.8068C156.907 24.6554 157.219 24.399 157.439 24.0701C157.659 23.7412 157.776 23.3546 157.776 22.959C157.775 22.4288 157.564 21.9204 157.189 21.5455C156.814 21.1705 156.306 20.9596 155.776 20.959ZM155.776 23.959C155.578 23.959 155.385 23.9004 155.22 23.7905C155.056 23.6806 154.928 23.5244 154.852 23.3417C154.776 23.159 154.756 22.9579 154.795 22.7639C154.834 22.5699 154.929 22.3917 155.069 22.2519C155.209 22.112 155.387 22.0168 155.581 21.9782C155.775 21.9396 155.976 21.9594 156.159 22.0351C156.341 22.1108 156.497 22.239 156.607 22.4034C156.717 22.5679 156.776 22.7612 156.776 22.959C156.776 23.2241 156.67 23.4783 156.483 23.6658C156.295 23.8533 156.041 23.9587 155.776 23.959V23.959ZM36.3333 10.3833C36.3333 9.98778 36.216 9.6011 35.9963 9.2722C35.7765 8.9433 35.4641 8.68696 35.0987 8.53558C34.7332 8.38421 34.3311 8.3446 33.9431 8.42177C33.5552 8.49894 33.1988 8.68942 32.9191 8.96913C32.6394 9.24883 32.4489 9.6052 32.3718 9.99316C32.2946 10.3811 32.3342 10.7833 32.4856 11.1487C32.6369 11.5142 32.8933 11.8265 33.2222 12.0463C33.5511 12.266 33.9378 12.3833 34.3333 12.3833C34.8636 12.3827 35.3719 12.1718 35.7469 11.7969C36.1218 11.4219 36.3327 10.9136 36.3333 10.3833V10.3833ZM33.3333 10.3833C33.3333 10.1856 33.392 9.99222 33.5019 9.82777C33.6117 9.66332 33.7679 9.53515 33.9506 9.45946C34.1334 9.38377 34.3344 9.36397 34.5284 9.40255C34.7224 9.44114 34.9006 9.53638 35.0404 9.67623C35.1803 9.81609 35.2755 9.99427 35.3141 10.1882C35.3527 10.3822 35.3329 10.5833 35.2572 10.766C35.1815 10.9487 35.0533 11.1049 34.8889 11.2148C34.7245 11.3247 34.5311 11.3833 34.3333 11.3833C34.0682 11.3831 33.814 11.2776 33.6265 11.0902C33.439 10.9027 33.3336 10.6485 33.3333 10.3833V10.3833Z" />
                <path d="M10.888 70.628L12.375 68.672L11.436 68.141L10.481 70.33H10.45L9.48001 68.156L8.52501 68.704L9.99601 70.613V70.644L7.69501 70.346V71.41L10.011 71.113V71.145L8.52501 73.053L9.41601 73.617L10.434 71.41H10.465L11.404 73.601L12.39 73.038L10.888 71.16V71.129L13.25 71.41V70.346L10.888 70.659V70.628Z" />
                <path d="M59.735 24.689L58.878 25.788L59.392 26.113L59.978 24.842H59.996L60.536 26.104L61.104 25.779L60.239 24.698V24.68L61.599 24.842V24.229L60.239 24.409V24.392L61.095 23.265L60.555 22.959L60.005 24.22H59.987L59.429 22.968L58.878 23.283L59.726 24.383V24.401L58.401 24.229V24.842L59.735 24.671V24.689Z" />
                <path d="M161.224 56.824V55.78L158.907 56.087V56.057L160.366 54.138L159.445 53.617L158.509 55.765H158.477L157.527 53.632L156.589 54.169L158.033 56.041V56.072L155.776 55.78V56.824L158.048 56.533V56.563L156.589 58.435L157.464 58.988L158.463 56.824H158.492L159.413 58.972L160.381 58.42L158.907 56.578V56.548L161.224 56.824Z" />
                <path d="M96.67 11.405L97.928 9.75L97.134 9.3L96.327 11.153H96.3L95.479 9.313L94.671 9.776L95.916 11.392V11.418L93.969 11.166V12.066L95.929 11.815V11.842L94.671 13.456L95.425 13.933L96.287 12.066H96.313L97.107 13.92L97.941 13.443L96.67 11.855V11.828L98.669 12.066V11.166L96.67 11.431V11.405Z" />
              </svg>