<svg className="h-24 w-20 text-emerald-900 opacity-60"  stroke="none" viewBox="0 0 168 168" fill="currentColor" xmlns="http://www.w3.org/2000/svg">
                <path d="M43.0195 23.6106C42.4804 23.6106 41.9334 23.6299 41.3936 23.6679C37.3137 23.9844 33.3903 25.375 30.022 27.6986C26.6536 30.0222 23.9602 33.1959 22.2154 36.8974C20.4706 40.5988 19.7366 44.6962 20.088 48.7731C20.4393 52.8501 21.8634 56.7614 24.2158 60.1098C28.2967 65.9091 39.4131 85.3953 39.525 85.5915C39.8745 86.2047 40.38 86.7144 40.9903 87.0691C41.6006 87.4237 42.2938 87.6105 42.9996 87.6106H45C45.3238 87.6129 45.6433 87.5359 45.9306 87.3864C46.2179 87.2369 46.4643 87.0194 46.6483 86.7529C46.8323 86.4864 46.9483 86.179 46.9863 85.8574C47.0243 85.5358 46.9831 85.2097 46.8663 84.9077C48.8844 81.3846 58.2531 65.0935 61.7403 60.1668C64.1866 56.7124 65.6398 52.6537 65.942 48.4315C66.2442 44.2093 65.3838 39.985 63.4544 36.2174C61.5249 32.4497 58.6001 29.2827 54.9975 27.0602C51.3949 24.8377 47.2523 23.6446 43.0195 23.6106V23.6106ZM58.4754 57.8559C54.4186 63.5873 43.0001 83.6106 43.0001 83.6106C43.0001 83.6106 31.7257 63.8313 27.4871 57.808C25.5426 55.0391 24.3649 51.8053 24.0736 48.4344C23.7822 45.0636 24.3876 41.6756 25.8282 38.6142C27.2688 35.5528 29.4934 32.9269 32.2764 31.0027C35.0594 29.0786 38.3018 27.9246 41.6747 27.658C42.1257 27.6262 42.574 27.6104 43.0195 27.6106C46.5188 27.6446 49.9421 28.6359 52.9181 30.4771C55.8941 32.3183 58.3092 34.9391 59.9016 38.0553C61.4941 41.1714 62.203 44.6641 61.9516 48.1546C61.7002 51.645 60.498 55.0001 58.4754 57.8559V57.8559Z" />
                <path d="M51.3999 87.6106H54.6001C55.1305 87.6106 55.6392 87.3999 56.0143 87.0248C56.3894 86.6498 56.6001 86.1411 56.6001 85.6106C56.6001 85.0802 56.3894 84.5715 56.0143 84.1964C55.6392 83.8213 55.1305 83.6106 54.6001 83.6106H51.3999C50.8695 83.6106 50.3608 83.8213 49.9857 84.1964C49.6106 84.5715 49.3999 85.0802 49.3999 85.6106C49.3999 86.1411 49.6106 86.6498 49.9857 87.0248C50.3608 87.3999 50.8695 87.6106 51.3999 87.6106Z" />
                <path d="M61 87.6106H63C63.3515 87.6106 63.6967 87.5179 64.001 87.342C64.3053 87.1661 64.5579 86.9132 64.7334 86.6086L65.7314 84.8752C65.9961 84.4155 66.0673 83.8694 65.9294 83.3572C65.7915 82.845 65.4558 82.4085 64.996 82.1438C64.5363 81.8791 63.9903 81.8079 63.478 81.9458C62.9658 82.0837 62.5293 82.4194 62.2646 82.8791L61.8437 83.6106H61C60.4696 83.6106 59.9609 83.8213 59.5858 84.1964C59.2107 84.5714 59 85.0802 59 85.6106C59 86.141 59.2107 86.6497 59.5858 87.0248C59.9609 87.3999 60.4696 87.6106 61 87.6106V87.6106Z" />
                <path d="M71.3726 71.0686C71.1449 70.9375 70.8937 70.8524 70.6332 70.8184C70.3728 70.7844 70.1081 70.802 69.8545 70.8703C69.6008 70.9386 69.3631 71.0562 69.1549 71.2164C68.9467 71.3766 68.7721 71.5763 68.6411 71.804L66.5156 75.4959C66.3845 75.7235 66.2996 75.9747 66.2656 76.2352C66.2317 76.4956 66.2493 76.7603 66.3176 77.0139C66.3859 77.2675 66.5035 77.5052 66.6636 77.7134C66.8238 77.9216 67.0233 78.0962 67.251 78.2273C67.4786 78.3584 67.7298 78.4433 67.9903 78.4773C68.2507 78.5113 68.5154 78.4936 68.769 78.4253C69.0226 78.3571 69.2603 78.2395 69.4685 78.0793C69.6767 77.9192 69.8514 77.7196 69.9824 77.492L72.1079 73.8001C72.3724 73.3403 72.4436 72.7943 72.3057 72.2821C72.1678 71.7699 71.8322 71.3334 71.3726 71.0686V71.0686Z" />
                <path d="M75.0176 60.7293L72.8921 64.4207C72.761 64.6483 72.6761 64.8995 72.6421 65.16C72.6081 65.4205 72.6258 65.6851 72.6941 65.9387C72.7624 66.1923 72.8799 66.43 73.0401 66.6382C73.2002 66.8464 73.3998 67.0211 73.6274 67.1521C73.8551 67.2832 74.1063 67.3681 74.3668 67.4021C74.6272 67.4361 74.8918 67.4184 75.1455 67.3501C75.3991 67.2819 75.6368 67.1643 75.845 67.0041C76.0532 66.844 76.2278 66.6444 76.3589 66.4168L78.4844 62.7254C78.7491 62.2656 78.8203 61.7196 78.6824 61.2073C78.5445 60.6951 78.2088 60.2586 77.749 59.9939C77.2893 59.7292 76.7433 59.658 76.231 59.7959C75.7188 59.9338 75.2823 60.2695 75.0176 60.7293Z" />
                <path d="M84 50.6106H82C81.6485 50.6107 81.3032 50.7033 80.999 50.8792C80.6947 51.0551 80.4421 51.3081 80.2666 51.6126L79.2686 53.346C79.0039 53.8058 78.9327 54.3518 79.0706 54.864C79.2085 55.3763 79.5442 55.8128 80.0039 56.0775C80.4637 56.3422 81.0097 56.4134 81.522 56.2755C82.0342 56.1376 82.4707 55.8018 82.7354 55.3421L83.1563 54.6107H84C84.5304 54.6107 85.0391 54.4 85.4142 54.0249C85.7893 53.6498 86 53.1411 86 52.6107C86 52.0802 85.7893 51.5715 85.4142 51.1965C85.0391 50.8214 84.5304 50.6107 84 50.6107V50.6106Z" />
                <path d="M118.286 54.6106H122.571C123.102 54.6106 123.61 54.3999 123.986 54.0248C124.361 53.6498 124.571 53.1411 124.571 52.6106C124.571 52.0802 124.361 51.5715 123.986 51.1964C123.61 50.8213 123.102 50.6106 122.571 50.6106H118.286C117.755 50.6106 117.247 50.8213 116.871 51.1964C116.496 51.5715 116.286 52.0802 116.286 52.6106C116.286 53.1411 116.496 53.6498 116.871 54.0248C117.247 54.3999 117.755 54.6106 118.286 54.6106Z" />
                <path d="M109.714 50.6106H105.428C104.898 50.6106 104.389 50.8213 104.014 51.1964C103.639 51.5715 103.428 52.0802 103.428 52.6106C103.428 53.1411 103.639 53.6498 104.014 54.0248C104.389 54.3999 104.898 54.6106 105.428 54.6106H109.714C110.245 54.6106 110.753 54.3999 111.129 54.0248C111.504 53.6498 111.714 53.1411 111.714 52.6106C111.714 52.0802 111.504 51.5715 111.129 51.1964C110.753 50.8213 110.245 50.6106 109.714 50.6106Z" />
                <path d="M92.5713 54.6106H96.8569C97.3874 54.6106 97.8961 54.3999 98.2711 54.0248C98.6462 53.6498 98.8569 53.1411 98.8569 52.6106C98.8569 52.0802 98.6462 51.5715 98.2711 51.1964C97.8961 50.8213 97.3874 50.6106 96.8569 50.6106H92.5713C92.0409 50.6106 91.5321 50.8213 91.1571 51.1964C90.782 51.5715 90.5713 52.0802 90.5713 52.6106C90.5713 53.1411 90.782 53.6498 91.1571 54.0248C91.5321 54.3999 92.0409 54.6106 92.5713 54.6106Z" />
                <path d="M135.428 50.6106H131.143C130.612 50.6106 130.103 50.8213 129.728 51.1964C129.353 51.5715 129.143 52.0802 129.143 52.6106C129.143 53.1411 129.353 53.6498 129.728 54.0248C130.103 54.3999 130.612 54.6106 131.143 54.6106H135.428C135.959 54.6106 136.467 54.3999 136.842 54.0248C137.218 53.6498 137.428 53.1411 137.428 52.6106C137.428 52.0802 137.218 51.5715 136.842 51.1964C136.467 50.8213 135.959 50.6106 135.428 50.6106Z" />
                <path d="M147.738 51.6204C147.563 51.3137 147.31 51.0587 147.005 50.8813C146.7 50.704 146.353 50.6106 146 50.6106H144C143.562 50.6107 143.136 50.7547 142.787 51.0205C142.439 51.2864 142.187 51.6593 142.071 52.082C141.955 52.5047 141.981 52.9538 142.146 53.3602C142.31 53.7666 142.603 54.1078 142.98 54.3313C142.98 54.7698 143.124 55.1961 143.39 55.5447C143.656 55.8933 144.029 56.1449 144.452 56.2607C144.875 56.3766 145.324 56.3503 145.73 56.1859C146.137 56.0215 146.478 55.7281 146.701 55.3509L147.721 53.6302C147.901 53.3264 147.997 52.9805 148 52.6276C148.003 52.2746 147.912 51.9271 147.738 51.6204V51.6204ZM137.274 67.3347C137.048 67.2008 136.798 67.1126 136.538 67.0754C136.278 67.0381 136.013 67.0524 135.759 67.1175C135.505 67.1827 135.265 67.2973 135.055 67.4549C134.845 67.6124 134.668 67.8099 134.534 68.0359L132.789 70.9807C132.655 71.2067 132.566 71.457 132.528 71.7173C132.491 71.9775 132.505 72.2426 132.57 72.4974C132.635 72.7522 132.749 72.9917 132.907 73.2022C133.065 73.4127 133.262 73.59 133.488 73.7241C133.715 73.8581 133.965 73.9462 134.225 73.9834C134.486 74.0205 134.751 74.006 135.005 73.9406C135.26 73.8751 135.499 73.7601 135.71 73.6021C135.92 73.4442 136.097 73.2463 136.23 73.0198L137.976 70.075C138.246 69.6186 138.324 69.0735 138.192 68.5597C138.061 68.0458 137.731 67.6052 137.274 67.3347V67.3347Z" />
                <path d="M139.77 59.2014L138.024 62.1463C137.89 62.3722 137.801 62.6225 137.764 62.8828C137.726 63.143 137.74 63.4081 137.805 63.6629C137.87 63.9177 137.985 64.1572 138.142 64.3677C138.3 64.5782 138.498 64.7555 138.724 64.8896C138.95 65.0236 139.2 65.1117 139.461 65.1489C139.721 65.186 139.986 65.1715 140.241 65.1061C140.496 65.0407 140.735 64.9257 140.945 64.7677C141.155 64.6097 141.332 64.4118 141.466 64.1853L143.211 61.2405C143.345 61.0145 143.434 60.7642 143.472 60.504C143.509 60.2437 143.495 59.9786 143.43 59.7238C143.365 59.469 143.251 59.2295 143.093 59.019C142.935 58.8085 142.738 58.6312 142.512 58.4972C142.285 58.3631 142.035 58.275 141.775 58.2379C141.514 58.2007 141.249 58.2153 140.995 58.2807C140.74 58.3461 140.501 58.4611 140.29 58.6191C140.08 58.7771 139.903 58.975 139.77 59.2014V59.2014ZM130 81.6106C130.347 81.6106 130.689 81.5202 130.99 81.3483C131.292 81.1764 131.544 80.9289 131.721 80.6301L132.74 78.9094C133.009 78.4531 133.087 77.9086 132.955 77.3955C132.823 76.8823 132.493 76.4424 132.037 76.1723C131.581 75.9022 131.037 75.824 130.524 75.9549C130.01 76.0858 129.57 76.415 129.299 76.8704L128.86 77.6106H128C127.47 77.6106 126.961 77.8213 126.586 78.1964C126.211 78.5715 126 79.0802 126 79.6106C126 80.141 126.211 80.6498 126.586 81.0248C126.961 81.3999 127.47 81.6106 128 81.6106H130ZM109.25 77.6106H105.5C104.97 77.6106 104.461 77.8213 104.086 78.1964C103.711 78.5715 103.5 79.0802 103.5 79.6106C103.5 80.141 103.711 80.6498 104.086 81.0248C104.461 81.3999 104.97 81.6106 105.5 81.6106H109.25C109.78 81.6106 110.289 81.3999 110.664 81.0248C111.039 80.6498 111.25 80.141 111.25 79.6106C111.25 79.0802 111.039 78.5715 110.664 78.1964C110.289 77.8213 109.78 77.6106 109.25 77.6106Z" />
                <path d="M114.75 79.6106C114.75 80.1411 114.961 80.6497 115.336 81.0248C115.711 81.3999 116.22 81.6106 116.75 81.6106H120.5C121.03 81.6106 121.539 81.3999 121.914 81.0248C122.289 80.6498 122.5 80.1411 122.5 79.6106C122.5 79.0802 122.289 78.5715 121.914 78.1964C121.539 77.8213 121.03 77.6106 120.5 77.6106H116.75C116.22 77.6107 115.711 77.8214 115.336 78.1964C114.961 78.5715 114.75 79.0802 114.75 79.6106ZM97.0503 82.2371L97.3188 81.6106H98C98.5304 81.6106 99.0391 81.3999 99.4142 81.0248C99.7893 80.6498 100 80.1411 100 79.6106C100 79.0802 99.7893 78.5715 99.4142 78.1964C99.0391 77.8213 98.5304 77.6106 98 77.6106H96C95.6086 77.6106 95.2258 77.7255 94.8991 77.9409C94.5723 78.1563 94.3159 78.4628 94.1616 78.8225L93.3735 80.6609C93.2699 80.9024 93.2148 81.1619 93.2115 81.4246C93.2082 81.6873 93.2566 81.9481 93.3541 82.1921C93.4516 82.4361 93.5962 82.6585 93.7797 82.8466C93.9632 83.0347 94.1819 83.1848 94.4234 83.2883C94.6649 83.3918 94.9245 83.4468 95.1872 83.45C95.4499 83.4532 95.7107 83.4046 95.9547 83.3069C96.1986 83.2093 96.4209 83.0646 96.6089 82.881C96.7969 82.6975 96.9469 82.4786 97.0503 82.2371V82.2371ZM86.6065 101.53C86.8479 101.633 87.1073 101.688 87.37 101.692C87.6327 101.695 87.8934 101.646 88.1373 101.549C88.3812 101.451 88.6035 101.306 88.7914 101.123C88.9793 100.939 89.1292 100.72 89.2325 100.479L90.5352 97.4383C90.6397 97.1967 90.6954 96.9368 90.6992 96.6737C90.7031 96.4105 90.6549 96.1491 90.5576 95.9046C90.4602 95.66 90.3155 95.4371 90.1318 95.2486C89.9481 95.0601 89.729 94.9097 89.4871 94.8061C89.2451 94.7024 88.9851 94.6476 88.7219 94.6446C88.4587 94.6416 88.1975 94.6907 87.9533 94.7889C87.7091 94.8871 87.4867 95.0325 87.2988 95.2168C87.1109 95.4012 86.9613 95.6208 86.8584 95.8631L85.5557 98.9036C85.3469 99.3912 85.3402 99.9417 85.5373 100.434C85.7343 100.927 86.1189 101.321 86.6065 101.53Z" />
                <path d="M93.394 85.6912C92.9064 85.4827 92.3559 85.4761 91.8635 85.6731C91.3711 85.87 90.9769 86.2542 90.7675 86.7415L89.4644 89.782C89.3607 90.0234 89.3057 90.2829 89.3023 90.5457C89.299 90.8084 89.3475 91.0692 89.445 91.3132C89.5425 91.5572 89.6871 91.7796 89.8705 91.9677C90.054 92.1558 90.2728 92.3059 90.5143 92.4094C90.7558 92.5129 91.0153 92.5678 91.278 92.571C91.5407 92.5742 91.8015 92.5256 92.0455 92.428C92.2894 92.3304 92.5117 92.1857 92.6997 92.0021C92.8877 91.8185 93.0377 91.5997 93.1411 91.3582L94.4443 88.3176C94.6533 87.8301 94.6601 87.2794 94.4631 86.7869C94.2661 86.2943 93.8815 85.9002 93.394 85.6912V85.6912ZM85.8384 108.399L86.6265 106.56C86.8352 106.073 86.8417 105.522 86.6447 105.03C86.4477 104.538 86.0632 104.144 85.5758 103.935C85.0884 103.726 84.5379 103.719 84.0455 103.916C83.5531 104.113 83.1589 104.497 82.9497 104.984L82.6812 105.611H82C81.4696 105.611 80.9609 105.821 80.5858 106.196C80.2107 106.571 80 107.08 80 107.611C80 108.141 80.2107 108.65 80.5858 109.025C80.9609 109.4 81.4696 109.611 82 109.611H84C84.3914 109.611 84.7742 109.496 85.1009 109.28C85.4277 109.065 85.6841 108.758 85.8384 108.399ZM61.75 105.611C61.2196 105.611 60.7109 105.821 60.3358 106.196C59.9607 106.571 59.75 107.08 59.75 107.611C59.75 108.141 59.9607 108.65 60.3358 109.025C60.7109 109.4 61.2196 109.611 61.75 109.611H65.125C65.6554 109.611 66.1641 109.4 66.5392 109.025C66.9143 108.65 67.125 108.141 67.125 107.611C67.125 107.08 66.9143 106.571 66.5392 106.196C66.1641 105.821 65.6554 105.611 65.125 105.611H61.75Z" />
                <path d="M69.875 107.611C69.875 108.141 70.0858 108.65 70.4608 109.025C70.8359 109.4 71.3446 109.611 71.875 109.611H75.25C75.7804 109.611 76.2891 109.4 76.6642 109.025C77.0393 108.65 77.25 108.141 77.25 107.611C77.25 107.08 77.0393 106.571 76.6642 106.196C76.2891 105.821 75.7804 105.611 75.25 105.611H71.875C71.3446 105.611 70.8359 105.821 70.4608 106.196C70.0858 106.572 69.875 107.08 69.875 107.611ZM52.1387 111.417C52.5169 111.417 52.8875 111.31 53.2073 111.108C53.5272 110.906 53.7833 110.618 53.9458 110.276L54.2627 109.611H55C55.5304 109.611 56.0391 109.4 56.4142 109.025C56.7893 108.65 57 108.141 57 107.611C57 107.08 56.7893 106.571 56.4142 106.196C56.0391 105.821 55.5304 105.611 55 105.611H53C52.6221 105.611 52.2518 105.718 51.9323 105.92C51.6127 106.121 51.3568 106.41 51.1943 106.751L50.3345 108.556C50.1895 108.861 50.124 109.198 50.1441 109.535C50.1641 109.872 50.2691 110.198 50.4491 110.483C50.6292 110.769 50.8785 111.004 51.1739 111.167C51.4693 111.33 51.8012 111.416 52.1387 111.417H52.1387ZM41.3091 132.161C41.5462 132.275 41.8032 132.34 42.0656 132.354C42.3279 132.367 42.5904 132.329 42.838 132.241C43.0855 132.153 43.3134 132.018 43.5084 131.842C43.7034 131.666 43.8619 131.453 43.9746 131.216L45.6367 127.726C45.75 127.489 45.8155 127.232 45.8293 126.969C45.8431 126.707 45.8051 126.444 45.7173 126.196C45.6296 125.948 45.4939 125.72 45.3179 125.525C45.142 125.33 44.9293 125.171 44.692 125.058C44.4547 124.945 44.1974 124.88 43.9349 124.866C43.6724 124.853 43.4098 124.891 43.1622 124.979C42.9145 125.067 42.6866 125.203 42.4916 125.38C42.2965 125.556 42.1381 125.769 42.0254 126.006L40.3633 129.496C40.2503 129.733 40.1852 129.99 40.1716 130.252C40.158 130.515 40.1962 130.777 40.284 131.025C40.3718 131.272 40.5076 131.5 40.6835 131.695C40.8593 131.89 41.0719 132.049 41.3091 132.161V132.161Z" />
                <path d="M48.9605 120.746L50.6221 117.256C50.8494 116.777 50.8773 116.228 50.6997 115.729C50.5222 115.229 50.1537 114.821 49.6752 114.593C49.1967 114.365 48.6473 114.336 48.1477 114.513C47.6481 114.69 47.2392 115.058 47.0107 115.536L45.3491 119.026C45.2358 119.263 45.1704 119.521 45.1566 119.783C45.1427 120.045 45.1808 120.308 45.2685 120.556C45.3562 120.804 45.492 121.032 45.6679 121.227C45.8438 121.422 46.0566 121.581 46.2939 121.694C46.5312 121.807 46.7884 121.872 47.0509 121.886C47.3134 121.899 47.576 121.861 47.8237 121.773C48.0713 121.685 48.2992 121.549 48.4943 121.372C48.6893 121.196 48.8477 120.983 48.9605 120.746V120.746ZM38.9893 141.685L40.6509 138.195C40.7642 137.958 40.8296 137.701 40.8435 137.438C40.8573 137.176 40.8192 136.913 40.7315 136.665C40.6438 136.418 40.508 136.19 40.3321 135.994C40.1562 135.799 39.9435 135.64 39.7061 135.527C39.4688 135.414 39.2116 135.349 38.9491 135.336C38.6866 135.322 38.424 135.361 38.1763 135.449C37.9287 135.537 37.7008 135.673 37.5057 135.849C37.3107 136.025 37.1523 136.238 37.0396 136.475L35.3779 139.966C35.2646 140.203 35.1992 140.46 35.1854 140.722C35.1715 140.985 35.2096 141.248 35.2973 141.495C35.3851 141.743 35.5208 141.971 35.6967 142.166C35.8727 142.362 36.0854 142.52 36.3227 142.633C36.56 142.746 36.8172 142.811 37.0797 142.825C37.3422 142.839 37.6048 142.8 37.8525 142.712C38.1001 142.624 38.328 142.488 38.5231 142.312C38.7181 142.136 38.8766 141.923 38.9893 141.685V141.685ZM43 34.6106C40.6266 34.6106 38.3066 35.3144 36.3332 36.633C34.3598 37.9516 32.8217 39.8257 31.9135 42.0184C31.0052 44.2111 30.7676 46.6239 31.2306 48.9517C31.6936 51.2795 32.8365 53.4177 34.5147 55.0959C36.193 56.7741 38.3311 57.917 40.6589 58.3801C42.9867 58.8431 45.3995 58.6054 47.5922 57.6972C49.7849 56.7889 51.6591 55.2509 52.9776 53.2775C54.2962 51.3041 55 48.984 55 46.6106C54.9964 43.4291 53.731 40.379 51.4813 38.1293C49.2317 35.8797 46.1815 34.6142 43 34.6106V34.6106ZM43 54.6106C41.4178 54.6106 39.871 54.1414 38.5554 53.2624C37.2399 52.3833 36.2145 51.1339 35.609 49.6721C35.0035 48.2103 34.845 46.6018 35.1537 45.0499C35.4624 43.4981 36.2243 42.0726 37.3432 40.9538C38.462 39.835 39.8874 39.073 41.4393 38.7643C42.9911 38.4557 44.5997 38.6141 46.0615 39.2196C47.5233 39.8251 48.7727 40.8505 49.6518 42.1661C50.5308 43.4817 51 45.0284 51 46.6106C51 48.7324 50.1571 50.7672 48.6569 52.2675C47.1566 53.7678 45.1217 54.6106 43 54.6106ZM137 110.611C137 108.237 136.296 105.917 134.978 103.944C133.659 101.97 131.785 100.432 129.592 99.5241C127.399 98.6158 124.987 98.3782 122.659 98.8412C120.331 99.3042 118.193 100.447 116.515 102.125C114.836 103.804 113.694 105.942 113.231 108.27C112.768 110.597 113.005 113.01 113.913 115.203C114.822 117.396 116.36 119.27 118.333 120.588C120.307 121.907 122.627 122.611 125 122.611C128.182 122.607 131.232 121.342 133.481 119.092C135.731 116.842 136.996 113.792 137 110.611V110.611ZM125 118.611C123.418 118.611 121.871 118.141 120.555 117.262C119.24 116.383 118.214 115.134 117.609 113.672C117.003 112.21 116.845 110.602 117.154 109.05C117.462 107.498 118.224 106.073 119.343 104.954C120.462 103.835 121.887 103.073 123.439 102.764C124.991 102.456 126.6 102.614 128.061 103.22C129.523 103.825 130.773 104.85 131.652 106.166C132.531 107.482 133 109.028 133 110.611C133 112.732 132.157 114.767 130.657 116.267C129.157 117.768 127.122 118.611 125 118.611Z" />
                <path d="M13 21.6225C13.5933 21.6225 14.1734 21.4466 14.6667 21.117C15.1601 20.7873 15.5446 20.3188 15.7716 19.7706C15.9987 19.2224 16.0581 18.6192 15.9424 18.0373C15.8266 17.4553 15.5409 16.9208 15.1213 16.5012C14.7018 16.0817 14.1672 15.7959 13.5853 15.6802C13.0033 15.5644 12.4001 15.6238 11.8519 15.8509C11.3038 16.078 10.8352 16.4625 10.5056 16.9558C10.1759 17.4492 10 18.0292 10 18.6225C10.0009 19.4179 10.3173 20.1804 10.8797 20.7429C11.4421 21.3053 12.2046 21.6216 13 21.6225V21.6225ZM13 17.1225C13.2967 17.1225 13.5867 17.2105 13.8334 17.3753C14.08 17.5402 14.2723 17.7744 14.3858 18.0485C14.4994 18.3226 14.5291 18.6242 14.4712 18.9152C14.4133 19.2062 14.2704 19.4734 14.0607 19.6832C13.8509 19.893 13.5836 20.0358 13.2926 20.0937C13.0017 20.1516 12.7001 20.1219 12.426 20.0084C12.1519 19.8948 11.9176 19.7026 11.7528 19.4559C11.588 19.2092 11.5 18.9192 11.5 18.6225C11.5004 18.2248 11.6586 17.8435 11.9398 17.5623C12.221 17.2811 12.6023 17.1229 13 17.1225V17.1225ZM158.305 66.6106C157.909 66.6106 157.522 66.7279 157.194 66.9477C156.865 67.1674 156.608 67.4798 156.457 67.8452C156.306 68.2107 156.266 68.6128 156.343 69.0008C156.42 69.3888 156.611 69.7451 156.891 70.0248C157.17 70.3045 157.527 70.495 157.915 70.5722C158.302 70.6494 158.705 70.6097 159.07 70.4584C159.436 70.307 159.748 70.0507 159.968 69.7218C160.187 69.3929 160.305 69.0062 160.305 68.6106C160.304 68.0804 160.093 67.572 159.718 67.1971C159.343 66.8221 158.835 66.6112 158.305 66.6106V66.6106ZM158.305 69.6106C158.107 69.6106 157.914 69.552 157.749 69.4421C157.585 69.3322 157.457 69.176 157.381 68.9933C157.305 68.8106 157.285 68.6095 157.324 68.4155C157.363 68.2215 157.458 68.0434 157.598 67.9035C157.737 67.7637 157.916 67.6684 158.11 67.6298C158.304 67.5912 158.505 67.611 158.687 67.6867C158.87 67.7624 159.026 67.8906 159.136 68.055C159.246 68.2195 159.305 68.4128 159.305 68.6106C159.304 68.8757 159.199 69.1299 159.012 69.3174C158.824 69.5049 158.57 69.6103 158.305 69.6106V69.6106ZM129.51 18.1225C129.114 18.1225 128.728 18.2398 128.399 18.4596C128.07 18.6794 127.814 18.9917 127.662 19.3572C127.511 19.7226 127.471 20.1248 127.548 20.5127C127.626 20.9007 127.816 21.2571 128.096 21.5368C128.375 21.8165 128.732 22.0069 129.12 22.0841C129.508 22.1613 129.91 22.1217 130.275 21.9703C130.641 21.8189 130.953 21.5626 131.173 21.2337C131.393 20.9048 131.51 20.5181 131.51 20.1225C131.509 19.5923 131.298 19.0839 130.923 18.709C130.549 18.3341 130.04 18.1231 129.51 18.1225ZM129.51 21.1225C129.312 21.1225 129.119 21.0639 128.954 20.954C128.79 20.8441 128.662 20.688 128.586 20.5052C128.51 20.3225 128.491 20.1214 128.529 19.9275C128.568 19.7335 128.663 19.5553 128.803 19.4154C128.943 19.2756 129.121 19.1803 129.315 19.1418C129.509 19.1032 129.71 19.123 129.893 19.1987C130.075 19.2744 130.232 19.4025 130.341 19.567C130.451 19.7314 130.51 19.9248 130.51 20.1225C130.51 20.3877 130.404 20.6419 130.217 20.8294C130.029 21.0168 129.775 21.1223 129.51 21.1225V21.1225ZM158.305 7.61061C157.909 7.61061 157.522 7.72791 157.194 7.94768C156.865 8.16744 156.608 8.4798 156.457 8.84525C156.306 9.2107 156.266 9.61283 156.343 10.0008C156.42 10.3888 156.611 10.7451 156.891 11.0248C157.17 11.3045 157.527 11.495 157.915 11.5722C158.302 11.6494 158.705 11.6097 159.07 11.4584C159.436 11.307 159.748 11.0507 159.968 10.7218C160.187 10.3929 160.305 10.0062 160.305 9.61061C160.304 9.08037 160.093 8.57201 159.718 8.19707C159.343 7.82213 158.835 7.61122 158.305 7.61061V7.61061ZM158.305 10.6106C158.107 10.6106 157.914 10.552 157.749 10.4421C157.585 10.3322 157.457 10.176 157.381 9.9933C157.305 9.81057 157.285 9.60951 157.324 9.41552C157.363 9.22154 157.458 9.04336 157.598 8.90351C157.737 8.76366 157.916 8.66842 158.11 8.62983C158.304 8.59124 158.505 8.61105 158.687 8.68674C158.87 8.76242 159.026 8.8906 159.136 9.05504C159.246 9.21949 159.305 9.41283 159.305 9.61061C159.304 9.87575 159.199 10.13 159.012 10.3174C158.824 10.5049 158.57 10.6103 158.305 10.6106V10.6106ZM73.9631 4.38937C73.9631 3.99381 73.8458 3.60713 73.6261 3.27823C73.4063 2.94934 73.094 2.69299 72.7285 2.54162C72.363 2.39024 71.9609 2.35063 71.573 2.4278C71.185 2.50497 70.8286 2.69546 70.5489 2.97516C70.2692 3.25487 70.0787 3.61123 70.0016 3.99919C69.9244 4.38716 69.964 4.78929 70.1154 5.15474C70.2667 5.52019 70.5231 5.83255 70.852 6.05231C71.1809 6.27208 71.5676 6.38937 71.9631 6.38937C72.4934 6.38877 73.0017 6.17786 73.3767 5.80292C73.7516 5.42798 73.9625 4.91962 73.9631 4.38937V4.38937ZM70.9631 4.38937C70.9631 4.19159 71.0218 3.99825 71.1317 3.8338C71.2415 3.66936 71.3977 3.54118 71.5804 3.46549C71.7632 3.38981 71.9642 3.37 72.1582 3.40859C72.3522 3.44717 72.5304 3.54242 72.6702 3.68227C72.8101 3.82212 72.9053 4.0003 72.9439 4.19428C72.9825 4.38827 72.9627 4.58933 72.887 4.77206C72.8113 4.95478 72.6831 5.11096 72.5187 5.22084C72.3543 5.33073 72.1609 5.38937 71.9631 5.38937C71.698 5.38911 71.4438 5.28367 71.2563 5.09619C71.0688 4.90871 70.9634 4.65451 70.9631 4.38937V4.38937Z" />
                <path d="M10.888 66.622L12.375 64.666L11.436 64.134L10.481 66.324H10.45L9.48001 64.15L8.52501 64.698L9.99601 66.607V66.638L7.69501 66.34V67.404L10.011 67.107V67.139L8.52501 69.047L9.41601 69.611L10.434 67.404H10.465L11.404 69.595L12.39 69.032L10.888 67.154V67.123L13.25 67.404V66.34L10.888 66.653V66.622Z" />
                <path d="M73.297 38.764L72.441 39.863L72.954 40.187L73.541 38.917H73.558L74.099 40.178L74.667 39.854L73.802 38.773V38.755L75.162 38.917V38.304L73.802 38.484V38.466L74.658 37.34L74.117 37.034L73.568 38.295H73.549L72.991 37.043L72.441 37.358L73.288 38.457V38.475L71.963 38.304V38.917L73.297 38.746V38.764Z" />
                <path d="M155.305 45.324V44.281L152.988 44.587V44.557L154.446 42.639L153.525 42.117L152.589 44.265H152.558L151.607 42.132L150.67 42.669L152.113 44.542V44.572L149.856 44.281V45.324L152.128 45.033V45.063L150.67 46.935L151.545 47.488L152.543 45.324H152.573L153.494 47.473L154.461 46.92L152.988 45.078V45.048L155.305 45.324Z" />
                <path d="M106.351 38.399L107.609 36.744L106.815 36.294L106.008 38.147H105.981L105.16 36.307L104.352 36.77L105.597 38.386V38.412L103.65 38.16V39.06L105.61 38.809V38.836L104.352 40.45L105.106 40.927L105.968 39.06H105.994L106.788 40.914L107.622 40.437L106.351 38.849V38.822L108.35 39.06V38.16L106.351 38.425V38.399Z" />
                <path d="M2 151.611C3.10457 151.611 4 150.716 4 149.611C4 148.506 3.10457 147.611 2 147.611C0.89543 147.611 0 148.506 0 149.611C0 150.716 0.89543 151.611 2 151.611Z" />
                <path d="M11 147.611H8C7.46957 147.611 6.96086 147.821 6.58579 148.196C6.21071 148.571 6 149.08 6 149.611C6 150.141 6.21071 150.65 6.58579 151.025C6.96086 151.4 7.46957 151.611 8 151.611H11C11.5304 151.611 12.0391 151.4 12.4142 151.025C12.7893 150.65 13 150.141 13 149.611C13 149.08 12.7893 148.571 12.4142 148.196C12.0391 147.821 11.5304 147.611 11 147.611Z" fill="black"/>
                <path d="M118.154 155.611H109.846C109.343 155.651 108.874 155.879 108.532 156.25C108.19 156.62 108 157.106 108 157.611C108 158.115 108.19 158.601 108.532 158.972C108.874 159.342 109.343 159.57 109.846 159.611H118.154C118.657 159.57 119.126 159.342 119.468 158.972C119.81 158.601 120 158.115 120 157.611C120 157.106 119.81 156.62 119.468 156.25C119.126 155.879 118.657 155.651 118.154 155.611ZM58.1539 155.611H49.8461C49.3433 155.651 48.8742 155.879 48.5321 156.25C48.1899 156.62 48 157.106 48 157.611C48 158.115 48.1899 158.601 48.5321 158.972C48.8742 159.342 49.3433 159.57 49.8461 159.611H58.1539C58.6566 159.57 59.1258 159.342 59.4679 158.972C59.81 158.601 60 158.115 60 157.611C60 157.106 59.81 156.62 59.4679 156.25C59.1258 155.879 58.6566 155.651 58.1539 155.611V155.611ZM104 155.611H64C63.4696 155.611 62.9609 155.821 62.5858 156.196C62.2107 156.571 62 157.08 62 157.611C62 158.141 62.2107 158.65 62.5858 159.025C62.9609 159.4 63.4696 159.611 64 159.611H79.94V161.611H72C71.4696 161.611 70.9609 161.821 70.5858 162.196C70.2107 162.571 70 163.08 70 163.611C70 164.141 70.2107 164.65 70.5858 165.025C70.9609 165.4 71.4696 165.611 72 165.611H97C97.5304 165.611 98.0391 165.4 98.4142 165.025C98.7893 164.65 99 164.141 99 163.611C99 163.08 98.7893 162.571 98.4142 162.196C98.0391 161.821 97.5304 161.611 97 161.611H88.06V159.611H104C104.53 159.611 105.039 159.4 105.414 159.025C105.789 158.65 106 158.141 106 157.611C106 157.08 105.789 156.571 105.414 156.196C105.039 155.821 104.53 155.611 104 155.611Z" />
                <path d="M2 151.611C3.10457 151.611 4 150.716 4 149.611C4 148.506 3.10457 147.611 2 147.611C0.89543 147.611 0 148.506 0 149.611C0 150.716 0.89543 151.611 2 151.611Z" />
                <path d="M11 147.611H8C7.46957 147.611 6.96086 147.821 6.58579 148.196C6.21071 148.571 6 149.08 6 149.611C6 150.141 6.21071 150.65 6.58579 151.025C6.96086 151.4 7.46957 151.611 8 151.611H11C11.5304 151.611 12.0391 151.4 12.4142 151.025C12.7893 150.65 13 150.141 13 149.611C13 149.08 12.7893 148.571 12.4142 148.196C12.0391 147.821 11.5304 147.611 11 147.611Z" fill="black"/>
                <path d="M118.154 155.611H109.846C109.343 155.651 108.874 155.879 108.532 156.25C108.19 156.62 108 157.106 108 157.611C108 158.115 108.19 158.601 108.532 158.972C108.874 159.342 109.343 159.57 109.846 159.611H118.154C118.657 159.57 119.126 159.342 119.468 158.972C119.81 158.601 120 158.115 120 157.611C120 157.106 119.81 156.62 119.468 156.25C119.126 155.879 118.657 155.651 118.154 155.611ZM58.1539 155.611H49.8461C49.3433 155.651 48.8742 155.879 48.5321 156.25C48.1899 156.62 48 157.106 48 157.611C48 158.115 48.1899 158.601 48.5321 158.972C48.8742 159.342 49.3433 159.57 49.8461 159.611H58.1539C58.6566 159.57 59.1258 159.342 59.4679 158.972C59.81 158.601 60 158.115 60 157.611C60 157.106 59.81 156.62 59.4679 156.25C59.1258 155.879 58.6566 155.651 58.1539 155.611V155.611ZM104 155.611H64C63.4696 155.611 62.9609 155.821 62.5858 156.196C62.2107 156.571 62 157.08 62 157.611C62 158.141 62.2107 158.65 62.5858 159.025C62.9609 159.4 63.4696 159.611 64 159.611H79.94V161.611H72C71.4696 161.611 70.9609 161.821 70.5858 162.196C70.2107 162.571 70 163.08 70 163.611C70 164.141 70.2107 164.65 70.5858 165.025C70.9609 165.4 71.4696 165.611 72 165.611H97C97.5304 165.611 98.0391 165.4 98.4142 165.025C98.7893 164.65 99 164.141 99 163.611C99 163.08 98.7893 162.571 98.4142 162.196C98.0391 161.821 97.5304 161.611 97 161.611H88.06V159.611H104C104.53 159.611 105.039 159.4 105.414 159.025C105.789 158.65 106 158.141 106 157.611C106 157.08 105.789 156.571 105.414 156.196C105.039 155.821 104.53 155.611 104 155.611Z" />
                <path d="M2 151.611C3.10457 151.611 4 150.716 4 149.611C4 148.506 3.10457 147.611 2 147.611C0.89543 147.611 0 148.506 0 149.611C0 150.716 0.89543 151.611 2 151.611Z" />
                <path d="M11 147.611H8C7.46957 147.611 6.96086 147.821 6.58579 148.196C6.21071 148.571 6 149.08 6 149.611C6 150.141 6.21071 150.65 6.58579 151.025C6.96086 151.4 7.46957 151.611 8 151.611H11C11.5304 151.611 12.0391 151.4 12.4142 151.025C12.7893 150.65 13 150.141 13 149.611C13 149.08 12.7893 148.571 12.4142 148.196C12.0391 147.821 11.5304 147.611 11 147.611Z" fill="black"/>
                <path d="M118.154 155.611H109.846C109.343 155.651 108.874 155.879 108.532 156.25C108.19 156.62 108 157.106 108 157.611C108 158.115 108.19 158.601 108.532 158.972C108.874 159.342 109.343 159.57 109.846 159.611H118.154C118.657 159.57 119.126 159.342 119.468 158.972C119.81 158.601 120 158.115 120 157.611C120 157.106 119.81 156.62 119.468 156.25C119.126 155.879 118.657 155.651 118.154 155.611ZM58.1539 155.611H49.8461C49.3433 155.651 48.8742 155.879 48.5321 156.25C48.1899 156.62 48 157.106 48 157.611C48 158.115 48.1899 158.601 48.5321 158.972C48.8742 159.342 49.3433 159.57 49.8461 159.611H58.1539C58.6566 159.57 59.1258 159.342 59.4679 158.972C59.81 158.601 60 158.115 60 157.611C60 157.106 59.81 156.62 59.4679 156.25C59.1258 155.879 58.6566 155.651 58.1539 155.611V155.611ZM104 155.611H64C63.4696 155.611 62.9609 155.821 62.5858 156.196C62.2107 156.571 62 157.08 62 157.611C62 158.141 62.2107 158.65 62.5858 159.025C62.9609 159.4 63.4696 159.611 64 159.611H79.94V161.611H72C71.4696 161.611 70.9609 161.821 70.5858 162.196C70.2107 162.571 70 163.08 70 163.611C70 164.141 70.2107 164.65 70.5858 165.025C70.9609 165.4 71.4696 165.611 72 165.611H97C97.5304 165.611 98.0391 165.4 98.4142 165.025C98.7893 164.65 99 164.141 99 163.611C99 163.08 98.7893 162.571 98.4142 162.196C98.0391 161.821 97.5304 161.611 97 161.611H88.06V159.611H104C104.53 159.611 105.039 159.4 105.414 159.025C105.789 158.65 106 158.141 106 157.611C106 157.08 105.789 156.571 105.414 156.196C105.039 155.821 104.53 155.611 104 155.611Z" />
                <path d="M160 147.611H157C156.47 147.611 155.961 147.821 155.586 148.196C155.211 148.571 155 149.08 155 149.611C155 150.141 155.211 150.65 155.586 151.025C155.961 151.4 156.47 151.611 157 151.611H160C160.53 151.611 161.039 151.4 161.414 151.025C161.789 150.65 162 150.141 162 149.611C162 149.08 161.789 148.571 161.414 148.196C161.039 147.821 160.53 147.611 160 147.611Z" fill="black"/>
                <path d="M166 151.611C167.105 151.611 168 150.716 168 149.611C168 148.506 167.105 147.611 166 147.611C164.895 147.611 164 148.506 164 149.611C164 150.716 164.895 151.611 166 151.611Z" />
                <path d="M150.721 147.611H129.611C132.583 142.44 140.58 128.632 143.74 124.167C146.187 120.712 147.64 116.654 147.942 112.431C148.244 108.209 147.384 103.985 145.454 100.217C143.525 96.4497 140.6 93.2827 136.998 91.0602C133.395 88.8376 129.252 87.6446 125.019 87.6106C124.48 87.6106 123.933 87.6299 123.394 87.6679C119.314 87.9844 115.39 89.375 112.022 91.6986C108.654 94.0222 105.96 97.1959 104.215 100.897C102.471 104.599 101.737 108.696 102.088 112.773C102.439 116.85 103.863 120.761 106.216 124.11C109.522 128.809 117.442 142.484 120.39 147.611H35.8331C35.7941 147.176 35.6129 146.765 35.3174 146.444C35.0219 146.122 34.6287 145.907 34.1985 145.831C33.7683 145.755 33.3251 145.823 32.9375 146.025C32.5499 146.226 32.2395 146.55 32.0542 146.945L31.7372 147.611H17.2787C16.9942 147.573 16.705 147.597 16.4305 147.681C16.1559 147.764 15.9024 147.906 15.6867 148.095C15.4711 148.284 15.2983 148.517 15.18 148.779C15.0616 149.04 15.0004 149.324 15.0004 149.611C15.0004 149.898 15.0616 150.181 15.18 150.443C15.2983 150.704 15.4711 150.937 15.6867 151.126C15.9024 151.316 16.1559 151.457 16.4305 151.54C16.705 151.624 16.9942 151.648 17.2787 151.611H150.721C151.006 151.648 151.295 151.624 151.57 151.54C151.844 151.457 152.098 151.316 152.313 151.126C152.529 150.937 152.702 150.704 152.82 150.443C152.938 150.181 153 149.898 153 149.611C153 149.324 152.938 149.04 152.82 148.779C152.702 148.517 152.529 148.284 152.313 148.095C152.098 147.906 151.844 147.764 151.57 147.681C151.295 147.597 151.006 147.573 150.721 147.611V147.611ZM109.487 121.808C107.543 119.039 106.365 115.805 106.074 112.434C105.782 109.064 106.388 105.676 107.828 102.614C109.269 99.5528 111.493 96.9269 114.276 95.0027C117.059 93.0786 120.302 91.9246 123.675 91.658C124.126 91.6262 124.574 91.6104 125.019 91.6106C128.519 91.6446 131.942 92.6359 134.918 94.4771C137.894 96.3183 140.309 98.9391 141.902 102.055C143.494 105.171 144.203 108.664 143.952 112.155C143.7 115.645 142.498 119 140.475 121.856C136.419 127.587 125 147.611 125 147.611C125 147.611 113.726 127.831 109.487 121.808V121.808Z" />
              </svg>